<svg width="141" height="36" viewBox="0 0 141 36" fill="none" xmlns="http://www.w3.org/2000/svg">
<path d="M21.4632 16.0668C21.3832 16.1079 21.2942 16.1285 21.2042 16.1268C21.1143 16.1251 21.0261 16.1011 20.9477 16.057L20.1117 15.5602C20.038 15.5118 19.977 15.4464 19.934 15.3694L19.926 15.3554C19.8757 15.2762 19.8465 15.1855 19.8409 15.0918L19.8197 14.1173C19.8209 14.0277 19.8442 13.9398 19.8875 13.8614C19.9308 13.7829 19.9928 13.7164 20.0679 13.6676L30.1127 7.81347L16.0133 0.127932C15.8367 0.0437079 15.6435 0 15.4478 0C15.2521 0 15.0589 0.0437079 14.8823 0.127932L0.781177 7.81347L16.5781 17.0099C16.6544 17.0563 16.718 17.121 16.763 17.1981C16.8081 17.2752 16.8332 17.3623 16.8361 17.4515V30.8692C16.8312 30.9591 16.8042 31.0464 16.7574 31.1233C16.7106 31.2002 16.6455 31.2643 16.5679 31.31L15.7179 31.7822C15.6387 31.8214 15.5512 31.8411 15.4629 31.8395H15.4467C15.353 31.8436 15.2597 31.8238 15.1756 31.7822L14.3226 31.3095C14.2458 31.2636 14.1815 31.1993 14.1355 31.1225C14.0896 31.0456 14.0633 30.9587 14.0591 30.8692V18.9076C14.0539 18.8606 14.0388 18.8152 14.0148 18.7745C13.9907 18.7337 13.9583 18.6986 13.9196 18.6713L0 10.5714V26.4402C0 26.7955 0.250333 27.2332 0.557193 27.4126L14.8912 35.8666C15.0637 35.9543 15.2545 36 15.448 36C15.6415 36 15.8323 35.9543 16.0048 35.8666L30.3405 27.4126C30.6461 27.2315 30.896 26.7959 30.8956 26.4402V10.5714L21.4632 16.0668Z" fill="url(#paint0_linear_11670_75429)"/>
<path d="M51.0554 14.4688C49.9533 13.8015 48.85 13.5112 47.3684 13.5112C43.4212 13.5112 40.5469 16.2105 40.5469 20.3038C40.5469 24.3682 43.2189 27.039 47.3981 27.039C48.7335 27.039 50.0102 26.7772 51.1722 26.0806V22.8003C50.1849 23.5556 49.1118 23.9619 47.892 23.9619C45.5404 23.9619 44.0592 22.4514 44.0592 20.2456C44.0592 17.9229 45.5986 16.5905 47.747 16.5905C48.9371 16.5905 49.9822 16.9101 51.0554 17.7805V14.4688Z" fill="#3C3C3B"/>
<path d="M72.3877 23.7774H72.3732C71.102 23.6699 70.4437 22.9325 70.4437 21.6099V7.91846H66.967V21.8381C66.967 25.6331 69.0921 26.8766 72.3877 26.8932V23.7774Z" fill="#3C3C3B"/>
<path d="M58.8483 13.5112C54.9866 13.5112 52.0837 16.2394 52.0837 20.2741C52.0837 24.3087 54.9866 27.039 58.8483 27.039C62.71 27.039 65.6413 24.3091 65.6413 20.2741C65.6413 16.239 62.7087 13.5112 58.8483 13.5112ZM58.8483 24.0206C56.9612 24.0206 55.5973 22.5963 55.5973 20.2741C55.5973 17.9518 56.9612 16.5301 58.8483 16.5301C60.7353 16.5301 62.0996 17.9531 62.0996 20.2741C62.0996 22.5951 60.7353 24.0206 58.8483 24.0206Z" fill="#3C3C3B"/>
<path d="M79.6464 25.8485C80.6907 26.5154 82.2874 26.8941 83.854 26.8941C86.8738 26.8941 88.9929 25.6165 88.9929 22.8003C88.9929 20.4789 87.8611 19.2009 84.5226 18.5901C83.3024 18.2998 82.8391 17.9526 82.8391 17.2845C82.8391 16.675 83.3325 16.1824 84.4941 16.1824C85.8282 16.1824 86.9592 16.6181 88.1794 17.4303V14.3251C87.0476 13.6876 85.9154 13.3667 84.3764 13.3667C81.5908 13.3667 79.4424 14.6715 79.4424 17.5174C79.4424 19.8694 80.6613 21.0297 83.5927 21.5529C85.016 21.844 85.5677 22.1624 85.5677 22.9461C85.5677 23.7587 84.8422 24.0779 83.7682 24.0779C82.4902 24.0779 80.8658 23.5254 79.6455 22.6273L79.6464 25.8485Z" fill="#3C3C3B"/>
<path d="M74 26.7492H77.492V25.6391V13.771H74V26.7492Z" fill="#3C3C3B"/>
<path d="M75.7465 8.59229C75.4011 8.59229 75.0636 8.6947 74.7764 8.88656C74.4893 9.07843 74.2655 9.35114 74.1334 9.6702C74.0012 9.98925 73.9667 10.3403 74.0341 10.679C74.1015 11.0177 74.2678 11.3288 74.512 11.573C74.7562 11.8171 75.0674 11.9834 75.4061 12.0507C75.7448 12.118 76.0959 12.0834 76.4149 11.9512C76.734 11.819 77.0066 11.5951 77.1984 11.3079C77.3902 11.0208 77.4926 10.6832 77.4925 10.3378C77.4925 10.1086 77.4473 9.88154 77.3596 9.66974C77.2718 9.45793 77.1432 9.26549 76.9811 9.10339C76.8189 8.9413 76.6264 8.81273 76.4146 8.72504C76.2028 8.63734 75.9757 8.59223 75.7465 8.59229Z" fill="#3C3C3B"/>
<path d="M134.036 13.5112C130.175 13.5112 127.271 16.2394 127.271 20.2741C127.271 24.3087 130.175 27.039 134.036 27.039C137.898 27.039 140.829 24.3091 140.829 20.2741C140.829 16.239 137.896 13.5112 134.036 13.5112ZM134.036 24.0206C132.149 24.0206 130.785 22.5963 130.785 20.2741C130.785 17.9518 132.149 16.5301 134.036 16.5301C135.923 16.5301 137.288 17.9531 137.288 20.2741C137.288 22.5951 135.923 24.0206 134.036 24.0206Z" fill="#3C3C3B"/>
<path d="M90.1626 25.8485C91.2064 26.5154 92.8032 26.8941 94.3702 26.8941C97.3904 26.8941 99.5095 25.6165 99.5095 22.8003C99.5095 20.4789 98.3773 19.2009 95.0388 18.5901C93.819 18.2998 93.3549 17.9526 93.3549 17.2845C93.3549 16.675 93.8492 16.1824 95.0124 16.1824C96.3465 16.1824 97.4775 16.6181 98.6973 17.4303V14.3251C97.5655 13.6876 96.4332 13.3667 94.8947 13.3667C92.1087 13.3667 89.9607 14.6715 89.9607 17.5174C89.9607 19.8694 91.1792 21.0297 94.1105 21.5529C95.5343 21.844 96.0856 22.1624 96.0856 22.9461C96.0856 23.7587 95.3605 24.0779 94.2861 24.0779C93.0076 24.0779 91.3836 23.5254 90.1634 22.6273L90.1626 25.8485Z" fill="#3C3C3B"/>
<path d="M101.006 26.7492H104.498V25.6391V13.771H101.006V26.7492Z" fill="#3C3C3B"/>
<path d="M102.752 8.59229C102.407 8.59237 102.069 8.69485 101.782 8.88677C101.495 9.07869 101.271 9.35143 101.139 9.67049C101.007 9.98956 100.973 10.3406 101.04 10.6793C101.107 11.018 101.274 11.329 101.518 11.5731C101.762 11.8172 102.073 11.9835 102.412 12.0507C102.751 12.118 103.102 12.0834 103.421 11.9511C103.74 11.8189 104.012 11.5951 104.204 11.3079C104.396 11.0207 104.498 10.6831 104.498 10.3378C104.498 10.1085 104.453 9.88143 104.365 9.66957C104.278 9.45772 104.149 9.26523 103.987 9.10312C103.825 8.94101 103.632 8.81245 103.42 8.7248C103.208 8.63715 102.981 8.59212 102.752 8.59229Z" fill="#3C3C3B"/>
<path d="M122.333 18.6556C122.333 17.2917 121.724 16.5964 120.36 16.5964C119.432 16.5964 118.504 16.7991 117.924 17.089C118.098 17.5122 118.187 17.9658 118.185 18.4235V26.7491H114.674V18.6556C114.674 17.2917 114.037 16.5964 112.702 16.5964C111.965 16.5921 111.231 16.6995 110.526 16.9152V26.7491H107.045V14.6524C108.844 13.9562 110.961 13.521 112.876 13.521C114.385 13.521 115.661 13.898 116.446 14.5364C117.607 14.0144 118.942 13.521 120.827 13.521C123.902 13.521 125.845 14.711 125.845 18.5102V26.7491H122.335L122.333 18.6556Z" fill="#3C3C3B"/>
<defs>
<linearGradient id="paint0_linear_11670_75429" x1="0.358711" y1="27.0501" x2="30.0881" y2="8.5955" gradientUnits="userSpaceOnUse">
<stop stop-color="#EB6608"/>
<stop offset="0.19" stop-color="#EC6C08"/>
<stop offset="0.44" stop-color="#EF7C07"/>
<stop offset="0.72" stop-color="#F49706"/>
<stop offset="1" stop-color="#FABA05"/>
</linearGradient>
</defs>
</svg>
