<?xml version="1.0" encoding="UTF-8"?>
<svg xmlns="http://www.w3.org/2000/svg" xmlns:xlink="http://www.w3.org/1999/xlink" width="64px" height="54px" viewBox="0 0 64 54" version="1.1">
<defs>
<linearGradient id="linear0" gradientUnits="userSpaceOnUse" x1="0.378906" y1="217.567" x2="396.789" y2="217.567" gradientTransform="matrix(0.161209,0,0,0.159763,0,0)">
<stop offset="0" style="stop-color:rgb(0%,0%,0%);stop-opacity:0.2;"/>
<stop offset="0.67" style="stop-color:rgb(0%,0%,0%);stop-opacity:0.501961;"/>
</linearGradient>
<linearGradient id="linear1" gradientUnits="userSpaceOnUse" x1="324.988" y1="244.745" x2="379.177" y2="192.162" gradientTransform="matrix(0.161209,0,0,0.159763,0,0)">
<stop offset="0" style="stop-color:rgb(92.156863%,40%,3.137255%);stop-opacity:1;"/>
<stop offset="0.19" style="stop-color:rgb(92.54902%,42.352941%,3.137255%);stop-opacity:1;"/>
<stop offset="0.44" style="stop-color:rgb(93.72549%,48.627451%,2.745098%);stop-opacity:1;"/>
<stop offset="0.72" style="stop-color:rgb(95.686275%,59.215686%,2.352941%);stop-opacity:1;"/>
<stop offset="1" style="stop-color:rgb(98.039216%,72.941176%,1.960784%);stop-opacity:1;"/>
</linearGradient>
</defs>
<g id="surface1">
<path style=" stroke:none;fill-rule:nonzero;fill:url(#linear0);" d="M 40.410156 53.910156 L 37.878906 53.910156 L 0.0625 32.386719 L 29.550781 15.605469 L 63.964844 40.433594 Z M 40.410156 53.910156 "/>
<path style=" stroke:none;fill-rule:nonzero;fill:rgb(83.529412%,56.470588%,31.764706%);fill-opacity:1;" d="M 63.964844 13.472656 L 40.417969 26.914062 L 40.421875 53.914062 L 63.964844 40.433594 Z M 63.964844 13.472656 "/>
<path style=" stroke:none;fill-rule:nonzero;fill:rgb(68.627451%,43.529412%,29.411765%);fill-opacity:1;" d="M 16.871094 13.472656 L 40.417969 26.914062 L 40.410156 53.914062 L 23.878906 44.445312 L 16.871094 40.433594 Z M 16.871094 13.472656 "/>
<path style=" stroke:none;fill-rule:nonzero;fill:rgb(94.901961%,73.333333%,51.764706%);fill-opacity:1;" d="M 63.964844 13.472656 L 40.449219 0.0117188 L 16.871094 13.472656 L 40.417969 26.914062 Z M 63.964844 13.472656 "/>
<path style=" stroke:none;fill-rule:nonzero;fill:rgb(100%,100%,100%);fill-opacity:1;" d="M 62.0625 39.25 L 42.378906 50.570312 L 42.378906 34.828125 L 62.0625 23.507812 Z M 62.0625 39.25 "/>
<path style=" stroke:none;fill-rule:nonzero;fill:url(#linear1);" d="M 57.765625 33.160156 C 57.753906 33.179688 57.734375 33.195312 57.710938 33.207031 C 57.691406 33.21875 57.667969 33.226562 57.640625 33.226562 L 57.4375 33.1875 C 57.429688 33.183594 57.421875 33.179688 57.414062 33.171875 C 57.40625 33.167969 57.402344 33.160156 57.398438 33.152344 C 57.382812 33.128906 57.375 33.105469 57.375 33.078125 L 57.375 32.773438 C 57.378906 32.710938 57.398438 32.652344 57.433594 32.597656 L 59.863281 29.367188 L 56.457031 28.886719 C 56.40625 28.886719 56.359375 28.898438 56.320312 28.925781 C 56.265625 28.957031 56.21875 28.996094 56.183594 29.042969 L 52.777344 33.414062 L 56.585938 34.132812 C 56.621094 34.132812 56.644531 34.179688 56.644531 34.234375 L 56.644531 38.460938 C 56.640625 38.527344 56.617188 38.585938 56.582031 38.636719 L 56.375 38.902344 C 56.359375 38.925781 56.335938 38.945312 56.3125 38.957031 C 56.292969 38.972656 56.269531 38.980469 56.246094 38.976562 L 56.042969 38.945312 C 56.007812 38.945312 55.976562 38.898438 55.976562 38.84375 L 55.976562 35.078125 C 55.976562 35.050781 55.960938 35.027344 55.945312 35.023438 L 52.582031 34.394531 L 52.582031 39.394531 C 52.582031 39.507812 52.640625 39.609375 52.714844 39.625 L 56.179688 40.304688 C 56.226562 40.308594 56.273438 40.296875 56.3125 40.269531 C 56.367188 40.242188 56.410156 40.203125 56.449219 40.152344 L 59.910156 35.507812 C 59.992188 35.394531 60.039062 35.261719 60.046875 35.125 L 60.046875 30.125 Z M 57.765625 33.160156 "/>
<path style=" stroke:none;fill-rule:nonzero;fill:rgb(75.686275%,76.078431%,76.862745%);fill-opacity:1;" d="M 50.238281 40.039062 L 44.386719 43.394531 C 44.078125 43.574219 43.824219 43.46875 43.824219 43.160156 L 43.824219 43 C 43.84375 42.820312 43.902344 42.644531 44 42.492188 C 44.097656 42.339844 44.230469 42.210938 44.386719 42.117188 L 50.238281 38.765625 C 50.550781 38.585938 50.804688 38.691406 50.804688 39 L 50.804688 39.160156 C 50.785156 39.339844 50.726562 39.515625 50.625 39.667969 C 50.527344 39.820312 50.394531 39.949219 50.238281 40.039062 Z M 50.238281 40.039062 "/>
<path style=" stroke:none;fill-rule:nonzero;fill:rgb(75.686275%,76.078431%,76.862745%);fill-opacity:1;" d="M 48.46875 43.703125 L 44.386719 46.039062 C 44.078125 46.214844 43.824219 46.109375 43.824219 45.800781 L 43.824219 45.640625 C 43.84375 45.460938 43.902344 45.289062 44 45.136719 C 44.097656 44.980469 44.230469 44.855469 44.386719 44.761719 L 48.46875 42.425781 C 48.777344 42.25 49.03125 42.355469 49.03125 42.664062 L 49.03125 42.824219 C 49.011719 43.003906 48.953125 43.175781 48.855469 43.328125 C 48.757812 43.484375 48.625 43.609375 48.46875 43.703125 Z M 48.46875 43.703125 "/>
<path style=" stroke:none;fill-rule:nonzero;fill:rgb(98.431373%,86.27451%,76.470588%);fill-opacity:1;" d="M 54.167969 19.066406 L 30.625 5.621094 L 26.664062 7.835938 L 50.207031 21.328125 Z M 54.167969 19.066406 "/>
<path style=" stroke:none;fill-rule:nonzero;fill:rgb(79.215686%,63.529412%,53.72549%);fill-opacity:1;" d="M 50.222656 23.585938 L 54.144531 21.328125 L 54.167969 19.066406 L 50.222656 21.347656 Z M 50.222656 23.585938 "/>
<path style=" stroke:none;fill-rule:nonzero;fill:rgb(94.901961%,73.333333%,51.764706%);fill-opacity:1;" d="M 52.378906 22.34375 L 52.070312 22.527344 L 52.070312 20.289062 C 49.253906 18.707031 44.734375 16.121094 40.359375 13.621094 C 35.945312 11.097656 31.257812 8.425781 28.445312 6.847656 L 28.769531 6.667969 C 31.582031 8.246094 36.097656 10.832031 40.511719 13.351562 C 44.925781 15.875 49.488281 18.484375 52.300781 20.0625 L 52.378906 20.109375 Z M 52.378906 22.34375 "/>
</g>
</svg>
