<svg width="32" height="32" viewBox="0 0 32 32" fill="none" xmlns="http://www.w3.org/2000/svg"><g clip-path="url(#clip0_283_39729)"><rect width="32" height="32" rx="16" fill="white"/><path fill-rule="evenodd" clip-rule="evenodd" d="M16.0001 27.9998C22.6275 27.9998 28.0001 22.6273 28.0001 15.9998C28.0001 9.37242 22.6275 3.99984 16.0001 3.99984C9.37266 3.99984 4.00008 9.37242 4.00008 15.9998C4.00008 22.6273 9.37266 27.9998 16.0001 27.9998ZM16.0001 29.3332C23.3639 29.3332 29.3334 23.3636 29.3334 15.9998C29.3334 8.63604 23.3639 2.6665 16.0001 2.6665C8.63628 2.6665 2.66675 8.63604 2.66675 15.9998C2.66675 23.3636 8.63628 29.3332 16.0001 29.3332Z" fill="#4D9F45"/><path fill-rule="evenodd" clip-rule="evenodd" d="M14.0045 21.9338C14.0015 21.8818 13.9999 21.8297 13.9999 21.7777C13.9999 19.9999 14.903 18.222 18.5155 17.3331C22.128 16.4443 23.0311 15.5554 23.9342 14.6665C26.6435 20.8886 21.2249 25.3332 17.6124 25.3332C16.0767 25.3332 14.541 24.0481 14.1154 22.5705C14.5027 22.6325 14.9096 22.6661 15.3333 22.6661C17.9999 22.6661 19.9999 21.3332 20.6666 19.9995C19.3333 21.3332 17.9999 21.9998 15.3333 21.9998C14.849 21.9998 14.4088 21.9778 14.0045 21.9338ZM13.394 22.4175C13.4758 22.8498 13.6364 23.2654 13.8537 23.6492C13.4714 23.8694 13.0476 23.9998 12.6239 23.9998C9.91449 23.9998 5.85041 20.6664 7.88245 15.9998C8.55979 16.6665 9.23714 17.3332 11.9465 17.9998C12.9701 18.2517 13.7037 18.5987 14.2202 19.0049C13.5537 19.8773 13.3333 20.8487 13.3333 21.7778C13.3333 21.7968 13.3334 21.8157 13.3337 21.8347C11.9006 21.5615 10.9503 20.9495 9.99992 19.9992C10.4927 20.9847 11.7137 21.9703 13.394 22.4175Z" fill="#7CC364"/><path d="M15.8017 14.7601C15.4328 14.7601 15.0906 14.7023 14.775 14.5867C14.4639 14.4667 14.1928 14.2978 13.9617 14.0801C13.735 13.8623 13.5572 13.6067 13.4283 13.3134C13.2995 13.0156 13.235 12.689 13.235 12.3334C13.235 11.9778 13.2995 11.6534 13.4283 11.3601C13.5572 11.0623 13.735 10.8045 13.9617 10.5867C14.1928 10.369 14.4639 10.2023 14.775 10.0867C15.0906 9.96674 15.4328 9.90674 15.8017 9.90674C16.2328 9.90674 16.6172 9.98229 16.955 10.1334C17.1981 10.2407 17.412 10.3817 17.5968 10.5563C17.7247 10.6772 17.7067 10.8787 17.5762 10.9968L17.2233 11.3161C17.0838 11.4423 16.8699 11.4242 16.7233 11.3063C16.642 11.2409 16.557 11.1855 16.4684 11.1401C16.2906 11.0467 16.0906 11.0001 15.8684 11.0001C15.6772 11.0001 15.5017 11.0312 15.3417 11.0934C15.1817 11.1556 15.0439 11.2467 14.9283 11.3667C14.8172 11.4823 14.7283 11.6223 14.6617 11.7867C14.5995 11.9512 14.5683 12.1334 14.5683 12.3334C14.5683 12.5334 14.5995 12.7156 14.6617 12.8801C14.7283 13.0445 14.8172 13.1867 14.9283 13.3067C15.0439 13.4223 15.1817 13.5112 15.3417 13.5734C15.5017 13.6356 15.6772 13.6667 15.8684 13.6667C16.0906 13.6667 16.2906 13.6201 16.4684 13.5267C16.557 13.4813 16.642 13.4259 16.7233 13.3605C16.8699 13.2426 17.0838 13.2245 17.2233 13.3507L17.5744 13.6684C17.7056 13.7871 17.7229 13.99 17.5935 14.1108C17.4095 14.2827 17.1967 14.4236 16.955 14.5334C16.6172 14.6845 16.2328 14.7601 15.8017 14.7601Z" fill="#4D9F45"/><path d="M20.6526 14.7601C20.2792 14.7601 19.9348 14.7001 19.6192 14.5801C19.3037 14.4601 19.0281 14.2912 18.7926 14.0734C18.5615 13.8512 18.3815 13.5934 18.2526 13.3001C18.1237 13.0067 18.0592 12.6845 18.0592 12.3334C18.0592 11.9823 18.1237 11.6601 18.2526 11.3667C18.3815 11.0734 18.5615 10.8178 18.7926 10.6001C19.0281 10.3778 19.3037 10.2067 19.6192 10.0867C19.9348 9.96674 20.2792 9.90674 20.6526 9.90674C21.0303 9.90674 21.3748 9.96674 21.6859 10.0867C22.0015 10.2067 22.2748 10.3778 22.5059 10.6001C22.737 10.8178 22.917 11.0734 23.0459 11.3667C23.1792 11.6601 23.2459 11.9823 23.2459 12.3334C23.2459 12.6845 23.1792 13.009 23.0459 13.3067C22.917 13.6001 22.737 13.8556 22.5059 14.0734C22.2748 14.2912 22.0015 14.4601 21.6859 14.5801C21.3748 14.7001 21.0303 14.7601 20.6526 14.7601ZM20.6526 13.6667C20.8303 13.6667 20.9948 13.6356 21.1459 13.5734C21.3015 13.5112 21.4348 13.4223 21.5459 13.3067C21.6615 13.1867 21.7503 13.0445 21.8126 12.8801C21.8792 12.7156 21.9126 12.5334 21.9126 12.3334C21.9126 12.129 21.8792 11.9467 21.8126 11.7867C21.7503 11.6223 21.6615 11.4823 21.5459 11.3667C21.4348 11.2467 21.3015 11.1556 21.1459 11.0934C20.9948 11.0312 20.8303 11.0001 20.6526 11.0001C20.4748 11.0001 20.3081 11.0312 20.1526 11.0934C20.0015 11.1556 19.8681 11.2467 19.7526 11.3667C19.6415 11.4823 19.5526 11.6223 19.4859 11.7867C19.4237 11.9467 19.3926 12.129 19.3926 12.3334C19.3926 12.5334 19.4237 12.7156 19.4859 12.8801C19.5526 13.0445 19.6415 13.1867 19.7526 13.3067C19.8681 13.4223 20.0015 13.5112 20.1526 13.5734C20.3081 13.6356 20.4748 13.6667 20.6526 13.6667Z" fill="#4D9F45"/><path d="M12.0425 11.8067C12.2266 11.8067 12.3758 11.956 12.3758 12.1401V12.4601C12.3758 12.6442 12.2266 12.7934 12.0425 12.7934H10.4692C10.3771 12.7934 10.3025 12.868 10.3025 12.9601V13.4801C10.3025 13.5721 10.3771 13.6467 10.4692 13.6467H12.4092C12.5933 13.6467 12.7425 13.796 12.7425 13.9801V14.3334C12.7425 14.5175 12.5933 14.6667 12.4092 14.6667H9.32918C9.14509 14.6667 8.99585 14.5175 8.99585 14.3334V10.3334C8.99585 10.1493 9.14509 10.0001 9.32918 10.0001H12.3225C12.5066 10.0001 12.6558 10.1493 12.6558 10.3334V10.6867C12.6558 10.8708 12.5066 11.0201 12.3225 11.0201H10.4692C10.3771 11.0201 10.3025 11.0947 10.3025 11.1867V11.6401C10.3025 11.7321 10.3771 11.8067 10.4692 11.8067H12.0425Z" fill="#4D9F45"/></g><defs><clipPath id="clip0_283_39729"><rect width="32" height="32" rx="16" fill="white"/></clipPath></defs></svg>