<svg xmlns="http://www.w3.org/2000/svg" width="500" height="334" fill="none"><g clip-path="url(#a)"><path fill="#fff" d="M0 .702h500v333.292H0V.702Z"/><path fill="#0052B4" d="M451.17 193.881c-3.899 0-13.646-4.868-20.468-8.763-10.722-5.842-20.468-11.684-30.312-11.684-9.844 0-19.493 5.842-30.312 11.684-6.823 3.895-15.595 8.763-19.493 8.763-3.899 0-13.645-4.868-19.493-8.763-10.722-5.842-21.443-11.684-31.287-11.684-8.772 0-19.493 5.842-30.312 11.684-6.822 3.895-15.594 8.763-19.493 8.763-3.899 0-12.671-4.868-19.493-8.763-10.721-5.842-21.443-11.684-30.312-11.684-9.747 0-20.468 5.842-31.287 11.684-5.848 3.895-15.594 8.763-19.493 8.763-3.898 0-12.67-4.868-19.493-8.763-10.721-5.842-20.468-11.684-30.312-11.684-9.844 0-19.493 5.842-30.312 11.684-6.822 3.895-16.569 8.763-20.468 8.763-3.898 0-12.67-4.868-19.493-8.763C19.591 179.276 9.844 173.434 0 173.434v21.421l18.518 9.737c10.722 5.842 20.468 11.684 30.312 11.684 9.845 0 20.468-5.842 31.287-11.684 5.848-3.895 15.594-9.737 19.493-9.737 3.899 0 12.671 5.842 19.493 9.737 10.722 5.842 20.468 11.684 30.312 11.684 9.844 0 19.493-5.842 30.312-11.684 6.823-3.895 16.569-9.737 20.468-9.737 3.899 0 12.67 5.842 19.493 9.737 10.721 5.842 20.468 11.684 30.312 11.684 9.844 0 19.493-5.842 30.312-11.684 6.822-3.895 15.594-9.737 19.493-9.737 3.899 0 13.645 5.842 20.468 9.737 10.721 5.842 20.468 11.684 30.312 11.684 9.844 0 19.493-5.842 30.312-11.684 6.822-3.895 15.594-9.737 19.493-9.737 3.898 0 13.645 5.842 19.493 9.737 10.721 5.842 21.443 11.684 31.287 11.684 9.844 0 19.493-5.842 30.311-11.684L500 194.855v-21.421c-9.747 0-19.493 5.842-29.337 11.684-6.823 3.895-15.595 8.763-19.493 8.763ZM0 31.86l18.518 9.737C29.24 47.439 38.986 53.28 48.83 53.28c9.845 0 20.468-5.842 31.287-11.684 5.848-3.895 15.594-9.737 19.493-9.737 3.899 0 12.671 5.842 19.493 9.737 10.722 5.842 20.468 11.684 30.312 11.684 9.844 0 19.493-5.842 30.312-11.684 6.823-3.895 16.569-9.737 20.468-9.737 3.899 0 12.67 5.842 19.493 9.737C230.409 47.439 240.156 53.28 250 53.28c9.844 0 19.493-5.842 30.312-11.684 6.822-3.895 15.594-9.737 19.493-9.737 3.899 0 13.645 5.842 20.468 9.737 10.721 5.842 20.468 11.684 30.312 11.684 9.844 0 19.493-5.842 30.312-11.684 6.822-3.895 15.594-9.737 19.493-9.737 3.898 0 13.645 5.842 19.493 9.737 10.721 5.842 21.443 11.684 31.287 11.684 9.844 0 19.493-5.842 30.311-11.684L500 31.86V10.439c-9.747.974-19.493 5.842-29.337 11.684-6.823 3.895-15.595 8.763-19.493 8.763-3.899 0-13.646-4.868-20.468-8.763-10.722-5.842-20.468-11.684-30.312-11.684-9.844 0-19.493 5.842-30.312 11.684-6.823 3.895-15.595 8.763-19.493 8.763-3.899 0-13.645-4.868-19.493-8.763-10.722-5.842-21.443-11.684-31.287-11.684-9.844 0-19.493 5.842-30.312 11.684-6.822 3.895-15.594 8.763-19.493 8.763-3.899 0-12.671-4.868-19.493-8.763-10.721-5.842-21.443-11.684-30.312-11.684s-20.468 5.842-31.287 11.684c-5.848 3.895-15.594 8.763-19.493 8.763-3.898 0-12.67-4.868-19.493-8.763-10.721-5.842-20.468-11.684-30.312-11.684-9.844 0-19.493 5.842-30.312 11.684-6.822 3.895-16.569 8.763-20.468 8.763-3.898 0-12.67-4.868-19.493-8.763C19.591 16.281 9.844 11.413 0 10.44v21.42Zm451.17 53.747c-3.899 0-13.646-4.868-20.468-8.763-10.722-5.842-20.468-11.684-30.312-11.684-9.844 0-19.493 5.842-30.312 11.684-6.823 3.895-15.595 8.763-19.493 8.763-3.899 0-13.645-4.868-19.493-8.763-10.722-5.842-21.443-11.684-31.287-11.684-8.772 0-19.493 5.842-30.312 11.684-6.822 3.895-15.594 8.763-19.493 8.763-3.899 0-12.671-4.868-19.493-8.763-10.721-5.842-21.443-11.684-30.312-11.684-9.747 0-20.468 5.842-31.287 11.684-5.848 3.895-15.594 8.763-19.493 8.763-3.898 0-12.67-4.868-19.493-8.763-10.721-5.842-20.468-11.684-30.312-11.684-9.844 0-19.493 5.842-30.312 11.684-6.822 3.895-16.569 8.763-20.468 8.763-3.898 0-12.67-4.868-19.493-8.763C19.591 71.002 9.844 65.16 0 65.16v21.421l18.518 8.763c10.722 5.842 20.468 11.684 30.312 11.684 9.845 0 20.468-5.842 31.287-11.684 5.848-3.894 15.594-8.763 19.493-8.763 3.899 0 12.671 4.868 19.493 8.763 10.722 5.842 20.468 11.684 30.312 11.684 9.844 0 19.493-5.842 30.312-11.684 6.823-3.894 16.569-8.763 20.468-8.763 3.899 0 12.67 4.868 19.493 8.763 10.721 5.842 20.468 11.684 30.312 11.684 9.844 0 19.493-5.842 30.312-11.684 6.822-3.894 15.594-8.763 19.493-8.763 3.899 0 13.645 4.868 20.468 8.763 10.721 5.842 20.468 11.684 30.312 11.684 9.844 0 19.493-5.842 30.312-11.684 6.822-3.894 15.594-8.763 19.493-8.763 3.898 0 13.645 4.868 19.493 8.763 10.721 5.842 21.443 11.684 31.287 11.684 9.844 0 19.493-5.842 30.311-11.684L500 86.581V65.16c-9.747 0-19.493 5.842-29.337 11.684-6.823 3.798-15.595 8.763-19.493 8.763ZM500 118.713c-9.747.973-19.493 5.842-29.337 11.684-6.823 3.895-15.595 9.737-19.493 9.737-3.899 0-13.646-5.842-20.468-9.737-10.722-5.842-20.468-11.684-30.312-11.684-9.844 0-19.493 5.842-30.312 11.684-6.823 3.895-15.595 9.737-19.493 9.737-3.899 0-13.645-5.842-19.493-9.737-10.722-5.842-21.443-11.684-31.287-11.684-9.844 0-19.493 5.842-30.312 11.684-6.822 3.895-15.594 9.737-19.493 9.737-3.899 0-12.671-5.842-19.493-9.737-10.721-5.842-21.443-11.684-30.312-11.684s-20.468 5.842-31.287 11.684c-5.848 3.895-15.594 9.737-19.493 9.737-3.898 0-12.67-5.842-19.493-9.737-10.721-5.842-20.468-11.684-30.312-11.684-9.844 0-19.493 5.842-30.312 11.684-6.822 3.895-16.569 9.737-20.468 9.737-3.898 0-12.67-5.842-19.493-9.737C19.591 124.555 9.844 119.686 0 118.713v22.394c3.899.974 12.67 4.869 18.518 8.764 10.722 5.842 20.468 11.684 30.312 11.684 9.845 0 20.468-5.842 31.287-11.684 5.848-3.895 15.594-8.764 19.493-8.764 3.899 0 12.671 4.869 19.493 8.764 10.722 5.842 20.468 11.684 30.312 11.684 9.844 0 19.493-5.842 30.312-11.684 6.823-3.895 16.569-8.764 20.468-8.764 3.899 0 12.67 4.869 19.493 8.764 10.721 5.842 20.468 11.684 30.312 11.684 9.844 0 19.493-5.842 30.312-11.684 6.822-3.895 15.594-8.764 19.493-8.764 3.899 0 13.645 4.869 20.468 8.764 10.721 5.842 20.468 11.684 30.312 11.684 9.844 0 19.493-5.842 30.312-11.684 6.822-3.895 15.594-8.764 19.493-8.764 3.898 0 13.645 4.869 19.493 8.764 10.721 5.842 21.443 11.684 31.287 11.684 9.844 0 19.493-5.842 30.311-11.684 5.848-3.895 14.62-7.79 18.519-8.764v-22.394Zm-48.83 129.792c-3.899 0-13.646-4.869-20.468-8.763-10.722-5.842-20.468-11.685-30.312-11.685-9.844 0-19.493 5.843-30.312 11.685-6.823 3.894-15.595 8.763-19.493 8.763-3.899 0-13.645-4.869-19.493-8.763-10.722-5.842-21.443-11.685-31.287-11.685-8.772 0-19.493 5.843-30.312 11.685-6.822 3.894-15.594 8.763-19.493 8.763-3.899 0-12.671-4.869-19.493-8.763-10.721-5.842-21.443-11.685-30.312-11.685-9.747 0-20.468 5.843-31.287 11.685-5.848 3.894-15.594 8.763-19.493 8.763-3.898 0-12.67-4.869-19.493-8.763-10.721-5.842-20.468-11.685-30.312-11.685-9.844 0-19.493 5.843-30.312 11.685-6.822 3.894-16.569 8.763-20.468 8.763-3.898 0-12.67-4.869-19.493-8.763C19.591 233.9 9.844 228.057 0 228.057v21.421l18.518 8.764c10.722 5.842 20.468 11.684 30.312 11.684 9.845 0 20.468-5.842 31.287-11.684 5.848-3.895 15.594-8.764 19.493-8.764 3.899 0 12.671 4.869 19.493 8.764 10.722 5.842 20.468 11.684 30.312 11.684 9.844 0 19.493-5.842 30.312-11.684 6.823-3.895 16.569-8.764 20.468-8.764 3.899 0 12.67 4.869 19.493 8.764 10.721 5.842 20.468 11.684 30.312 11.684 9.844 0 19.493-5.842 30.312-11.684 6.822-3.895 15.594-8.764 19.493-8.764 3.899 0 13.645 4.869 20.468 8.764 10.721 5.842 20.468 11.684 30.312 11.684 9.844 0 19.493-5.842 30.312-11.684 6.822-3.895 15.594-8.764 19.493-8.764 3.898 0 13.645 4.869 19.493 8.764 10.721 5.842 21.443 11.684 31.287 11.684 9.844 0 19.493-5.842 30.311-11.684L500 249.478v-21.421c-9.747 0-19.493 5.843-29.337 11.685-6.823 3.894-15.595 8.763-19.493 8.763ZM500 281.61c-9.747.974-19.493 5.842-29.337 11.684-6.823 3.895-15.595 9.737-19.493 9.737-3.899 0-13.646-5.842-20.468-9.737-10.722-5.842-20.468-11.684-30.312-11.684-9.844 0-19.493 5.842-30.312 11.684-6.823 3.895-15.595 9.737-19.493 9.737-3.899 0-13.645-5.842-19.493-9.737-10.722-5.842-21.443-11.684-31.287-11.684-9.844 0-19.493 5.842-30.312 11.684-6.822 3.895-15.594 9.737-19.493 9.737-3.899 0-12.671-5.842-19.493-9.737-10.721-5.842-21.443-11.684-30.312-11.684s-20.468 5.842-31.287 11.684c-5.848 3.895-15.594 9.737-19.493 9.737-3.898 0-12.67-5.842-19.493-9.737-10.721-5.842-20.468-11.684-30.312-11.684-9.844 0-19.493 5.842-30.312 11.684-6.822 3.895-16.569 9.737-20.468 9.737-3.898 0-12.67-5.842-19.493-9.737C19.591 287.452 9.844 282.584 0 281.61v22.395c3.899 0 12.67 4.868 18.518 8.763 10.722 5.842 20.468 11.684 30.312 11.684 9.845 0 20.468-5.842 31.287-11.684 5.848-3.895 15.594-8.763 19.493-8.763 3.899 0 12.671 4.868 19.493 8.763 10.722 5.842 20.468 11.684 30.312 11.684 9.844 0 19.493-5.842 30.312-11.684 6.823-3.895 16.569-8.763 20.468-8.763 3.899 0 12.67 4.868 19.493 8.763 10.721 5.842 20.468 11.684 30.312 11.684 9.844 0 19.493-5.842 30.312-11.684 6.822-3.895 15.594-8.763 19.493-8.763 3.899 0 13.645 4.868 20.468 8.763 10.721 5.842 20.468 11.684 30.312 11.684 9.844 0 19.493-5.842 30.312-11.684 6.822-3.895 15.594-8.763 19.493-8.763 3.898 0 13.645 4.868 19.493 8.763 10.721 5.842 21.443 11.684 31.287 11.684 9.844 0 19.493-5.842 30.311-11.684 5.848-3.895 14.62-8.763 18.519-8.763V281.61Z"/><path fill="#fff" d="M0 .702h249.513v166.5H0V.702Z"/><path fill="#A2001D" d="M379.922 117.739h17.739v76.726h-17.836l.097-76.726Zm0 114.7h17.739v73.124h-17.836l.097-73.124Z"/><path fill="#D80027" d="M140.351.702h-31.189V68.86H0v31.158h109.162v67.184h31.189v-67.184h109.162V68.86H140.351V.702Z"/><path fill="#D80027" d="M0 .702v14.605l55.556 37.974h22.417L0 .702Zm249.513 0v14.605l-55.556 37.974H171.54L249.513.702Z"/><path fill="#D80027" d="M0 .702v14.605l55.556 37.974h22.417L0 .702Zm249.513 0v14.605l-55.556 37.974H171.54L249.513.702ZM0 167.202v-14.605l55.556-37h22.417L0 167.202Zm249.513 0v-14.605l-55.556-37H171.54l77.973 51.605Z"/><path fill="#2E52B2" d="M0 23.097V53.28h44.834L0 23.097ZM93.567.702v47.71L22.417.703h71.15Zm155.946 22.395V53.28h-44.835l44.835-30.184ZM155.945.702v47.71L227.096.703h-71.151Z"/><path fill="#2E52B2" d="M0 23.097V53.28h44.834L0 23.097ZM93.567.702v47.71L22.417.703h71.15Zm155.946 22.395V53.28h-44.835l44.835-30.184ZM155.945.702v47.71L227.096.703h-71.151ZM0 144.807v-29.21h44.834L0 144.807Zm93.567 22.395v-47.71l-71.15 47.71h71.15Zm155.946-22.395v-29.21h-44.835l44.835 29.21Zm-93.568 22.395v-47.71l71.151 47.71h-71.151Z"/><path fill="#5DA51E" stroke="#45602C" stroke-miterlimit="10" stroke-width="4" d="M451.072 90.086H422.71l25.048-25.023c4.386-4.285 4.386-11.1 0-15.385l-3.314-3.31a10.831 10.831 0 0 0-15.399 0l-25.244 25.218V37.41c0-6.037-4.971-11.003-11.013-11.003h-4.581c-6.043 0-11.014 4.966-11.014 11.003v30.866l-22.904-23.174a11.598 11.598 0 0 0-16.472 0l-3.509 3.505c-4.581 4.577-4.581 12.074 0 16.748l24.366 24.731H328.85c-5.848 0-10.624 4.771-10.624 10.613v4.479c0 5.842 4.776 10.613 10.624 10.613h30.799l-20.175 20.156c-4.289 4.284-4.289 11.1 0 15.384l3.314 3.31a10.83 10.83 0 0 0 15.399 0l19.103-19.084v28.042c0 5.94 4.971 10.808 11.014 11.003h4.581c6.043 0 11.014-4.966 11.014-11.003v-27.555l21.637 22.005c4.581 4.577 12.086 4.577 16.667 0l3.508-3.505c4.581-4.576 4.581-12.074 0-16.747l-21.539-21.908h26.9c5.751 0 10.429-4.771 10.624-10.613v-4.479c0-5.94-4.776-10.71-10.624-10.71Z"/><path fill="#E2DD24" stroke="#525625" stroke-miterlimit="10" stroke-width="4" d="M428.07 243.539h-77.778s-.877-13.048-5.848-21.226c-6.042-10.127-13.547-27.361-1.364-35.735 15.497-10.613 32.846.779 46.978.779 11.501.098 26.219-13.631 43.86-.779 11.891 8.666 3.801 27.458-1.267 35.735-6.823 11.197-4.581 21.226-4.581 21.226Z"/></g><defs><clipPath id="a"><path fill="#fff" d="M0 .994h500v333H0z"/></clipPath></defs></svg>