<svg width="150" height="32" fill="none" xmlns="http://www.w3.org/2000/svg"><path d="M86.993 19.087c0-1.393-1.593-1.789-2.998-2.137-1.098-.273-2.134-.53-2.134-1.225 0-.652.728-1.056 1.901-1.056.787 0 1.88.331 2.541.771l.03.02.632-.933-.03-.021c-.733-.483-2.078-.847-3.13-.847-1.836 0-3.22.933-3.22 2.17 0 1.473 1.597 1.865 3.007 2.21 1.14.28 2.125.522 2.125 1.248 0 .713-.94 1.087-1.87 1.087-1.021 0-2.136-.342-3.057-.94l-.031-.02-.632.934.032.02c.914.598 2.366 1.015 3.53 1.015 1.976 0 3.304-.922 3.304-2.296ZM95.88 20.221a3.674 3.674 0 0 0 1.157-2.7c0-1.037-.411-1.995-1.157-2.7-.805-.76-1.923-1.162-3.233-1.162s-2.428.402-3.234 1.162a3.675 3.675 0 0 0-1.156 2.7c0 1.037.41 1.996 1.156 2.7.806.76 1.924 1.162 3.234 1.162s2.428-.402 3.233-1.162Zm-3.233.09c-1.834 0-3.114-1.147-3.114-2.79 0-1.642 1.28-2.79 3.114-2.79 1.833 0 3.114 1.148 3.114 2.79 0 1.643-1.28 2.79-3.114 2.79ZM104.266 20.143h-4.468v-6.337h-1.213v6.868c0 .341.226.562.575.562h5.106v-1.093ZM110.473 17.91c0 1.593-.782 2.401-2.323 2.401-1.535 0-2.313-.808-2.313-2.4v-4.105h-1.213v4.199c0 2.147 1.285 3.378 3.526 3.378 2.247 0 3.536-1.231 3.536-3.378v-4.199h-1.213v4.104ZM115.647 21.236h1.213V14.9h2.951v-1.094h-7.114V14.9h2.95v6.336ZM122.267 13.806h-1.213v7.43h1.213v-7.43ZM128.321 13.66c-1.31 0-2.428.401-3.233 1.161a3.674 3.674 0 0 0-1.157 2.7c0 1.037.411 1.996 1.157 2.7.805.76 1.923 1.162 3.233 1.162s2.428-.402 3.233-1.162a3.674 3.674 0 0 0 1.157-2.7 3.675 3.675 0 0 0-1.157-2.7c-.805-.76-1.923-1.162-3.233-1.162Zm3.114 3.861c0 1.643-1.28 2.79-3.114 2.79-1.833 0-3.114-1.147-3.114-2.79 0-1.642 1.281-2.79 3.114-2.79 1.834 0 3.114 1.148 3.114 2.79ZM140.519 19.369l-5.004-5.55-.011-.013h-1.213v7.43h1.191V15.56l5.089 5.665.011.012h1.129v-7.43h-1.192v5.563ZM146.764 20.374c-1.022 0-2.136-.342-3.057-.94l-.031-.02-.632.934.032.02c.914.598 2.366 1.015 3.53 1.015 1.976 0 3.304-.922 3.304-2.296 0-1.393-1.593-1.789-2.998-2.137-1.097-.273-2.134-.53-2.134-1.225 0-.652.729-1.056 1.901-1.056.787 0 1.879.331 2.541.771l.031.02.631-.933-.031-.021c-.731-.483-2.077-.847-3.129-.847-1.836 0-3.22.933-3.22 2.17 0 1.473 1.597 1.865 3.007 2.21 1.14.28 2.125.522 2.125 1.248 0 .714-.941 1.087-1.87 1.087ZM86.234 27.731c.868-.248 1.345-.847 1.345-1.695 0-.501-.158-.924-.456-1.221-.617-.615-1.674-.74-3.07-.74-.98 0-2.324 0-3.342.031l-.036.001v7.474l.035.001c1.05.053 2.325.053 3.449.053 2.526 0 3.653-.66 3.653-2.141 0-.85-.616-1.534-1.578-1.763Zm-1.672-.474h-2.668v-2.115h2.752c.685 0 1.141.128 1.395.391a.91.91 0 0 1 .265.63c0 .685-.652 1.094-1.744 1.094Zm-2.668 1.09h3.081c.763 0 1.533.338 1.533 1.094 0 .274-.095.491-.307.703-.35.35-1.105.402-1.523.402h-2.784v-2.2ZM96.373 28.235c0 1.604-.787 2.417-2.338 2.417-1.545 0-2.328-.813-2.328-2.417v-4.129h-1.22v4.225c0 2.16 1.293 3.4 3.548 3.4 2.261 0 3.558-1.24 3.558-3.4v-4.225h-1.22v4.13ZM103.901 27.269c-1.105-.275-2.148-.534-2.148-1.233 0-.656.733-1.063 1.914-1.063.791 0 1.89.334 2.557.777l.03.02.636-.94-.031-.02c-.736-.485-2.09-.852-3.15-.852-1.847 0-3.24.939-3.24 2.184 0 1.481 1.608 1.875 3.026 2.223 1.148.282 2.139.525 2.139 1.256 0 .718-.947 1.094-1.882 1.094-1.028 0-2.149-.344-3.077-.946l-.03-.02-.636.94.032.02c.92.602 2.38 1.021 3.552 1.021 1.988 0 3.325-.928 3.325-2.31 0-1.402-1.603-1.8-3.017-2.151ZM111.13 24.106h-1.22v7.476h1.22v-7.476ZM120.708 29.704l-5.036-5.585-.011-.013h-1.221v7.476h1.199V25.87l5.121 5.7.011.013h1.135v-7.476h-1.198v5.598ZM126.343 28.315h4.698v-1.1h-4.698v-2.01h5.101v-1.099h-6.321v6.91c0 .339.232.566.578.566h5.881v-1.1h-5.239v-2.167ZM137.645 27.269c-1.104-.275-2.148-.534-2.148-1.233 0-.656.734-1.063 1.914-1.063.792 0 1.891.334 2.557.777l.03.02.636-.94-.031-.02c-.736-.485-2.09-.852-3.149-.852-1.848 0-3.24.939-3.24 2.184 0 1.481 1.607 1.875 3.025 2.223 1.148.282 2.139.525 2.139 1.256 0 .718-.947 1.094-1.882 1.094-1.027 0-2.149-.344-3.076-.946l-.031-.02-.636.94.032.02c.92.602 2.38 1.021 3.552 1.021 1.989 0 3.325-.928 3.325-2.31 0-1.402-1.603-1.8-3.017-2.151ZM146.8 27.269c-1.105-.275-2.148-.534-2.148-1.233 0-.656.733-1.063 1.914-1.063.791 0 1.891.334 2.557.777l.03.02.636-.94-.031-.02c-.736-.485-2.09-.852-3.149-.852-1.847 0-3.241.939-3.241 2.184 0 1.481 1.608 1.875 3.026 2.223 1.148.282 2.139.525 2.139 1.256 0 .718-.947 1.094-1.882 1.094-1.027 0-2.149-.344-3.076-.946l-.031-.02-.636.94.032.02c.92.602 2.381 1.021 3.552 1.021 1.989 0 3.325-.928 3.325-2.31 0-1.402-1.603-1.8-3.017-2.151ZM94.203.222h-1.835L87.72 9.159h1.938l.832-1.643h5.565l.546 1.08c.268.528.517.563 1.214.563h1.036L94.203.222ZM91.3 5.916l1.972-3.894 1.972 3.894H91.3ZM104.226 6.515v2.644h-1.799V.305c.945-.024 2.22-.06 3.274-.06 2.057 0 3.426.29 4.24 1.102.498.516.759 1.215.722 1.93 0 2.557-2.003 3.253-4.859 3.253-.39 0-1.118-.01-1.578-.015Zm0-1.64c.453.01 1.024.015 1.417.015 1.153 0 2.211-.034 2.775-.597a1.3 1.3 0 0 0 .375-.987 1.22 1.22 0 0 0-.305-.826c-.563-.561-1.382-.596-2.845-.596-.394 0-.963.006-1.417.016v2.975ZM122.358 4.732c0 2.537-2.003 4.601-5.367 4.601s-5.366-2.064-5.366-4.6c0-2.538 2.002-4.602 5.366-4.602 3.365 0 5.367 2.064 5.367 4.601Zm-5.367-2.991c-2.038 0-3.493 1.178-3.493 2.991 0 1.813 1.453 2.991 3.493 2.991s3.493-1.178 3.493-2.99c0-1.814-1.453-2.992-3.493-2.992ZM131.445 1.123c-.975-.607-2.559-.992-3.757-.992-2.257 0-4.031 1.183-4.031 2.83 0 3.1 6.122 1.95 6.122 3.79 0 .751-1.119 1.072-2.076 1.072a6.442 6.442 0 0 1-3.579-1.118l-.92 1.365c1.116.759 2.912 1.264 4.342 1.264 2.236 0 4.107-1.04 4.107-2.778 0-3.147-6.095-2.168-6.095-3.875 0-.722 1.009-1.038 2.098-1.038a5.545 5.545 0 0 1 2.943.894l.846-1.414ZM140.881.299h-8.585v1.645h3.362V9.16h1.798V1.944h3.425V.3ZM142.01.299v8.223c0 .37.229.638.642.638h7.238V7.52h-6.082V5.46h5.431V3.82h-5.431V1.946h5.921V.299h-7.719M82.46.299h-1.798v8.223c0 .37.229.638.642.638h5.372l.853-1.64H82.46V.3ZM16.36.873l15.73 7.13h24.094l1.994-3.45C59.375 2.483 57.93 0 55.748 0h-39.22c-.533 0-.66.65-.169.873ZM32.09 11.064h39.247c.454 0 .893.355.893.883a.882.882 0 0 1-.645.862L.572 31.983c-.463.126-.788-.47-.399-.779l31.917-20.14ZM12.26 32l25.765-.478c2.499-.046 5.426-1.482 6.761-3.794l3.09-5.347L12.26 32Z" fill="#003DA5"/></svg>