<svg width="75" height="64" viewBox="0 0 75 64" fill="none" xmlns="http://www.w3.org/2000/svg">
<path d="M9.13604 55.5576C8.3308 54.7638 7.03109 54.4252 4.74884 54.4252C3.5329 54.4252 1.56485 54.4686 1.56485 54.4686V63.8215H3.3574V60.9891C3.83662 60.9975 4.52217 60.9975 4.87721 60.9975C7.23397 60.9975 9.93933 60.6153 9.93933 57.6347C9.93933 56.7771 9.6769 56.098 9.13604 55.5576ZM8.06972 57.6472C8.06972 58.9485 7.31476 59.3453 4.83816 59.3453C4.49389 59.3453 3.8269 59.3453 3.3574 59.3369V56.0639C3.60038 56.0623 4.68675 56.0518 4.87721 56.0518C7.1448 56.0518 8.06972 56.514 8.06972 57.6472Z" fill="#003DA5"/>
<path d="M17.6111 60.4584C19.1456 60.0026 20.0503 58.9603 20.0503 57.6216C20.0503 56.7443 19.7786 56.0599 19.2169 55.5272C18.2057 54.6006 16.8787 54.4251 14.7838 54.4249C13.3768 54.4249 11.3697 54.4685 11.3697 54.4685V63.8213H13.1622V60.7033H15.6568L17.7559 63.2744C18.0671 63.6476 18.4992 63.8213 19.1155 63.8213H20.5397L17.6111 60.4584ZM18.1941 57.6088C18.1941 58.5708 17.6446 59.1275 14.8351 59.1275C14.4952 59.1275 13.6651 59.1275 13.1622 59.119V56.0635C13.3974 56.0623 14.7712 56.0514 14.9626 56.0514C17.2882 56.0516 18.1941 56.4881 18.1941 57.6088Z" fill="#003DA5"/>
<path d="M26.5952 54.2841C23.3092 54.2841 21.1119 56.4045 21.1119 59.1423C21.1119 61.9244 23.34 63.9999 26.5952 63.9999C29.8216 63.9999 32.0796 61.9411 32.0796 59.1423C32.0796 56.3159 29.7969 54.2841 26.5952 54.2841ZM30.21 59.1423C30.21 61.0447 28.7235 62.3734 26.5951 62.3734C24.4668 62.3734 22.9804 61.0447 22.9804 59.1423C22.9804 57.2395 24.4668 55.9106 26.5951 55.9106C28.7235 55.9106 30.21 57.2395 30.21 59.1423Z" fill="#003DA5"/>
<path d="M15.5836 40.4063H13.6818L8.86734 49.6929H10.8743L11.7364 47.9854H17.5017L18.0679 49.1065C18.3454 49.6565 18.603 49.6927 19.3258 49.6927H20.3989L15.5836 40.4063ZM12.5756 46.3227L14.6186 42.2762L16.6616 46.3227H12.5756Z" fill="#003DA5"/>
<path d="M25.967 46.9449V49.6929H24.104V40.493C25.0825 40.4678 26.4036 40.4301 27.4958 40.4301C29.6262 40.4301 31.0446 40.7323 31.8879 41.5757C32.4037 42.1118 32.6743 42.8374 32.6357 43.5803C32.6357 46.2379 30.561 46.9609 27.6019 46.9609C27.1981 46.9607 26.444 46.9508 25.967 46.9449ZM25.967 45.241C26.4364 45.2506 27.0277 45.2572 27.4354 45.2572C28.6302 45.2572 29.7255 45.221 30.3098 44.6366C30.5782 44.365 30.7193 43.9926 30.6983 43.6114C30.7034 43.2959 30.5909 42.9899 30.3828 42.7528C29.7995 42.1694 28.9514 42.1333 27.4354 42.1333C27.0275 42.1333 26.4371 42.1399 25.967 42.1495V45.241Z" fill="#003DA5"/>
<path d="M44.752 45.0928C44.752 47.729 42.6774 49.8738 39.1921 49.8738C35.7068 49.8738 33.6322 47.7292 33.6322 45.093C33.6322 42.4567 35.7066 40.312 39.1921 40.312C42.6775 40.312 44.752 42.4566 44.752 45.0928ZM39.1919 41.9847C37.0801 41.9847 35.5731 43.2088 35.5731 45.0928C35.5731 46.9768 37.0789 48.2009 39.1919 48.2009C41.305 48.2009 42.8107 46.9768 42.8107 45.0928C42.8107 43.2088 41.3052 41.9847 39.1922 41.9847H39.1919Z" fill="#003DA5"/>
<path d="M54.1666 41.3427C53.1562 40.7119 51.5151 40.3116 50.2743 40.3116C47.9354 40.3116 46.0976 41.5412 46.0976 43.2515C46.0976 46.4734 52.4406 45.2782 52.4406 47.191C52.4406 47.971 51.2808 48.3046 50.2894 48.3046C48.9656 48.2944 47.6749 47.8899 46.5821 47.1427L45.6284 48.561C46.7842 49.3492 48.645 49.8739 50.1268 49.8739C52.443 49.8739 54.3811 48.7946 54.3811 46.9878C54.3811 43.7175 48.067 44.7352 48.067 42.9618C48.067 42.2109 49.1125 41.8825 50.2412 41.8825C51.3248 41.8977 52.3817 42.2199 53.2895 42.8114L54.1666 41.3427Z" fill="#003DA5"/>
<path d="M63.9414 40.4861H55.0482V42.1961H58.5308V49.6929H60.394V42.1961H63.9414V40.4861Z" fill="#003DA5"/>
<path d="M65.1114 40.4861V49.0305C65.1114 49.4146 65.3486 49.693 65.777 49.693H73.2755V47.9898H66.9744V45.8486H72.6012V44.1456H66.9744V42.1963H73.1081V40.4862H65.1114" fill="#003DA5"/>
<path d="M3.41756 40.4864H1.55484V49.0308C1.55484 49.4149 1.79213 49.6933 2.22063 49.6933H7.78592L8.6697 47.99H3.41771L3.41756 40.4864Z" fill="#003DA5"/>
<path d="M16.9482 0.907425L33.2452 8.31569H58.2072L60.2728 4.73043C61.5124 2.58074 60.0155 0 57.7548 0H17.1238C16.5713 0 16.4383 0.675669 16.9482 0.907425Z" fill="#003DA5"/>
<path d="M33.2456 11.4962H73.9048C74.3752 11.4962 74.8304 11.8649 74.8304 12.414C74.8304 12.8998 74.4976 13.2164 74.1622 13.3093L0.592672 33.2314C0.1133 33.3628 -0.223786 32.744 0.179281 32.4226L33.2456 11.4962Z" fill="#003DA5"/>
<path d="M12.7016 33.2496L39.3935 32.7531C41.9826 32.705 45.015 31.213 46.3987 28.8112L49.5996 23.2555L12.7016 33.2496Z" fill="#003DA5"/>
</svg>
