<svg width="66" height="64" fill="none" xmlns="http://www.w3.org/2000/svg"><path d="M7.1 52.505c0-1.266-1.444-1.626-2.718-1.943-.995-.248-1.935-.482-1.935-1.113 0-.593.66-.96 1.724-.96.713 0 1.703.301 2.303.7l.028.02.572-.85-.028-.019c-.663-.438-1.883-.77-2.837-.77-1.664 0-2.918.849-2.918 1.974 0 1.338 1.448 1.695 2.725 2.009 1.034.254 1.927.474 1.927 1.134 0 .649-.853.989-1.695.989-.926 0-1.936-.312-2.772-.855l-.027-.018-.573.849.029.018c.828.544 2.144.923 3.2.923 1.79 0 2.995-.839 2.995-2.088ZM15.155 53.536a3.345 3.345 0 0 0 1.049-2.454c0-.943-.373-1.814-1.049-2.455-.73-.69-1.743-1.056-2.93-1.056-1.188 0-2.202.365-2.931 1.056a3.346 3.346 0 0 0-1.049 2.455c0 .943.373 1.815 1.049 2.454.73.691 1.743 1.057 2.93 1.057 1.188 0 2.201-.366 2.931-1.057Zm-2.93.082c-1.662 0-2.823-1.043-2.823-2.536s1.16-2.536 2.822-2.536c1.662 0 2.823 1.043 2.823 2.536s-1.16 2.536-2.823 2.536ZM22.757 53.465h-4.05v-5.76h-1.1v6.243c0 .31.205.511.521.511h4.63v-.994ZM28.383 51.435c0 1.449-.708 2.183-2.106 2.183-1.391 0-2.096-.734-2.096-2.183v-3.73h-1.1v3.817c0 1.952 1.166 3.071 3.196 3.071 2.038 0 3.206-1.12 3.206-3.072v-3.816h-1.1v3.73ZM33.074 54.46h1.1v-5.761h2.674v-.994H30.4v.994h2.675v5.76ZM39.074 47.705h-1.1v6.754h1.1v-6.755ZM44.562 47.57c-1.187 0-2.2.366-2.93 1.057a3.346 3.346 0 0 0-1.05 2.455c0 .943.373 1.815 1.05 2.454.73.691 1.743 1.057 2.93 1.057 1.188 0 2.201-.366 2.931-1.057a3.345 3.345 0 0 0 1.048-2.454c0-.943-.372-1.814-1.048-2.455-.73-.69-1.743-1.056-2.93-1.056Zm2.823 3.512c0 1.493-1.16 2.536-2.823 2.536-1.662 0-2.822-1.043-2.822-2.536s1.16-2.536 2.822-2.536c1.662 0 2.823 1.043 2.823 2.536ZM55.62 52.762l-4.537-5.046-.01-.011h-1.1v6.754h1.08v-5.161l4.614 5.15.01.011H56.7v-6.755h-1.08v5.058ZM61.28 53.676c-.926 0-1.936-.312-2.77-.855l-.029-.018-.572.849.028.019c.829.543 2.145.922 3.2.922 1.791 0 2.995-.839 2.995-2.088 0-1.266-1.444-1.626-2.718-1.943-.995-.248-1.934-.482-1.934-1.113 0-.593.66-.96 1.724-.96.713 0 1.703.301 2.302.7l.028.02.573-.85-.028-.019c-.664-.438-1.883-.77-2.837-.77-1.664 0-2.919.849-2.919 1.974 0 1.338 1.448 1.695 2.726 2.009 1.034.254 1.927.474 1.927 1.134 0 .649-.853.989-1.696.989ZM6.411 60.364c.788-.225 1.22-.77 1.22-1.541 0-.456-.143-.84-.414-1.11-.559-.559-1.517-.673-2.783-.673-.889 0-2.106 0-3.029.029h-.033v6.795l.032.001c.953.048 2.107.048 3.126.048 2.29 0 3.312-.6 3.312-1.946 0-.773-.559-1.395-1.43-1.603Zm-1.515-.43H2.478V58.01h2.495c.62 0 1.034.116 1.264.355.15.15.24.364.24.572 0 .623-.591.995-1.581.995Zm-2.418.99H5.27c.691 0 1.389.307 1.389.995 0 .249-.086.446-.279.639-.317.318-1 .365-1.38.365H2.478v-2ZM15.602 60.823c0 1.457-.713 2.196-2.12 2.196-1.4 0-2.11-.739-2.11-2.196v-3.755h-1.105v3.841c0 1.965 1.172 3.091 3.216 3.091 2.05 0 3.225-1.127 3.225-3.09v-3.841h-1.106v3.754ZM22.426 59.944c-1.001-.25-1.947-.485-1.947-1.121 0-.596.665-.966 1.735-.966.717 0 1.714.303 2.317.706l.028.018.576-.854-.028-.018c-.667-.442-1.894-.775-2.854-.775-1.675 0-2.938.853-2.938 1.985 0 1.347 1.457 1.705 2.743 2.022 1.04.256 1.939.477 1.939 1.141 0 .653-.858.995-1.706.995-.931 0-1.948-.313-2.789-.86l-.028-.018-.576.854.029.019c.834.546 2.158.928 3.22.928 1.802 0 3.014-.844 3.014-2.1 0-1.275-1.453-1.637-2.735-1.956ZM28.98 57.068h-1.107v6.797h1.106v-6.797ZM37.661 62.158l-4.565-5.078-.01-.012H31.98v6.797h1.086v-5.194l4.642 5.183.01.011h1.03v-6.797H37.66v5.09ZM42.769 60.895h4.258v-1H42.77v-1.827h4.624v-1h-5.73v6.283c0 .307.21.514.524.514h5.33v-1H42.77v-1.97ZM53.014 59.944c-1.001-.25-1.947-.485-1.947-1.121 0-.596.665-.966 1.735-.966.717 0 1.714.303 2.318.706l.027.018.576-.854-.028-.018c-.667-.442-1.894-.775-2.855-.775-1.674 0-2.937.853-2.937 1.985 0 1.347 1.458 1.705 2.743 2.022 1.04.256 1.94.477 1.94 1.141 0 .653-.86.995-1.707.995-.931 0-1.948-.313-2.789-.86l-.028-.018-.576.854.029.019c.834.546 2.158.928 3.22.928 1.803 0 3.014-.844 3.014-2.1 0-1.275-1.453-1.637-2.735-1.956ZM61.313 59.944c-1.002-.25-1.948-.485-1.948-1.121 0-.596.665-.966 1.736-.966.717 0 1.713.303 2.317.706l.028.018.576-.854-.028-.018c-.667-.442-1.894-.775-2.855-.775-1.674 0-2.937.853-2.937 1.985 0 1.347 1.457 1.705 2.743 2.022 1.04.256 1.939.477 1.939 1.141 0 .653-.859.995-1.706.995-.932 0-1.948-.313-2.789-.86l-.028-.018-.576.854.029.019c.834.546 2.158.928 3.22.928 1.802 0 3.013-.844 3.013-2.1 0-1.275-1.452-1.637-2.734-1.956ZM13.635 35.354h-1.664L7.76 43.48h1.756l.754-1.494h5.044l.496.98c.243.482.468.514 1.1.514h.94l-4.214-8.126Zm-2.632 5.177 1.788-3.54 1.787 3.54h-3.575ZM22.72 41.075v2.405h-1.63v-8.05c.857-.022 2.012-.055 2.968-.055 1.864 0 3.105.265 3.843 1.003.451.469.688 1.103.654 1.754 0 2.325-1.815 2.957-4.404 2.957-.354 0-1.013-.008-1.43-.014Zm0-1.49c.411.008.928.014 1.285.014 1.046 0 2.004-.032 2.515-.543.235-.238.358-.564.34-.897a1.112 1.112 0 0 0-.276-.752c-.51-.51-1.252-.541-2.579-.541-.357 0-.873.005-1.285.014v2.705ZM39.157 39.455c0 2.306-1.815 4.183-4.865 4.183-3.05 0-4.865-1.876-4.865-4.183s1.815-4.183 4.865-4.183c3.05 0 4.865 1.876 4.865 4.183Zm-4.865-2.72c-1.848 0-3.167 1.071-3.167 2.72 0 1.648 1.318 2.72 3.167 2.72 1.849 0 3.166-1.072 3.166-2.72 0-1.649-1.317-2.72-3.166-2.72ZM47.394 36.174c-.884-.552-2.32-.902-3.405-.902-2.047 0-3.655 1.075-3.655 2.572 0 2.819 5.55 1.773 5.55 3.447 0 .682-1.015.974-1.882.974a5.826 5.826 0 0 1-3.244-1.017l-.834 1.242c1.01.69 2.639 1.148 3.935 1.148 2.027 0 3.723-.944 3.723-2.525 0-2.861-5.525-1.971-5.525-3.523 0-.657.915-.944 1.903-.944a5.015 5.015 0 0 1 2.667.813l.767-1.285ZM55.947 35.424h-7.781v1.496h3.047v6.56h1.63v-6.56h3.104v-1.496ZM56.97 35.424V42.9c0 .336.208.58.583.58h6.56v-1.49h-5.512v-1.874h4.923v-1.49H58.6v-1.705h5.366v-1.497h-6.996M2.99 35.424H1.36V42.9c0 .336.208.58.583.58h4.87l.773-1.49H2.99v-6.566ZM14.83.794l14.258 6.482H50.93l1.807-3.137C53.82 2.259 52.512 0 50.534 0H14.983c-.484 0-.6.591-.154.794ZM29.089 10.059h35.576c.411 0 .81.323.81.803a.802.802 0 0 1-.585.783L.519 29.077c-.42.114-.715-.427-.362-.708l28.932-18.31ZM11.114 29.092l23.354-.434c2.266-.042 4.919-1.348 6.13-3.449l2.8-4.861-32.285 8.744Z" fill="#003DA5"/></svg>