<svg width="32" height="32" viewBox="0 0 32 32" fill="none" xmlns="http://www.w3.org/2000/svg"><g clip-path="url(#clip0_283_39677)"><rect width="32" height="32" rx="16" fill="white"/><mask id="mask0_283_39677" style="mask-type:alpha" maskUnits="userSpaceOnUse" x="2" y="2" width="28" height="28"><path fill-rule="evenodd" clip-rule="evenodd" d="M16.0001 29.3332C23.3639 29.3332 29.3334 23.3636 29.3334 15.9998C29.3334 8.63604 23.3639 2.6665 16.0001 2.6665C8.63628 2.6665 2.66675 8.63604 2.66675 15.9998C2.66675 23.3636 8.63628 29.3332 16.0001 29.3332ZM16.0001 27.9998C22.6275 27.9998 28.0001 22.6273 28.0001 15.9998C28.0001 9.37242 22.6275 3.99984 16.0001 3.99984C9.37266 3.99984 4.00008 9.37242 4.00008 15.9998C4.00008 22.6273 9.37266 27.9998 16.0001 27.9998Z" fill="black"/></mask><g mask="url(#mask0_283_39677)"><rect x="2.66675" y="2.6665" width="9.33333" height="26.6667" fill="#0055A4"/><rect x="12" y="2.6665" width="8" height="26.6667" fill="white"/><rect x="20" y="2.6665" width="9.33333" height="26.6667" fill="#EF2835"/></g><mask id="mask1_283_39677" style="mask-type:alpha" maskUnits="userSpaceOnUse" x="2" y="2" width="28" height="28"><path fill-rule="evenodd" clip-rule="evenodd" d="M16.0001 29.3332C23.3639 29.3332 29.3334 23.3636 29.3334 15.9998C29.3334 8.63604 23.3639 2.6665 16.0001 2.6665C8.63628 2.6665 2.66675 8.63604 2.66675 15.9998C2.66675 23.3636 8.63628 29.3332 16.0001 29.3332ZM16.0001 23.9998C20.4184 23.9998 24.0001 20.4181 24.0001 15.9998C24.0001 11.5816 20.4184 7.99984 16.0001 7.99984C11.5818 7.99984 8.00008 11.5816 8.00008 15.9998C8.00008 20.4181 11.5818 23.9998 16.0001 23.9998Z" fill="black"/></mask><g mask="url(#mask1_283_39677)"><rect x="12" y="2.6665" width="2.66667" height="26.6667" fill="#0055A4"/><rect x="14.6667" y="2.6665" width="2.66667" height="26.6667" fill="white"/><rect x="17.3335" y="2.6665" width="2.66667" height="26.6667" fill="#EF2835"/></g><path d="M7.52148 11.2266H8.62548L8.62282 11.5172H7.86548V11.8932H8.55882V12.1839H7.86548V12.7626H7.52148V11.2266Z" fill="black"/><path d="M10.0815 12.7626L9.96155 12.4666H9.24955L9.12688 12.7626H8.77222L9.43888 11.2266H9.79355L10.4495 12.7626H10.0815ZM9.36422 12.1866H9.84688L9.60688 11.5919L9.36422 12.1866Z" fill="black"/><path d="M11.4493 11.2266C11.6173 11.2266 11.752 11.2612 11.8507 11.3306C11.9493 11.3999 11.9987 11.4946 11.9987 11.6132C11.9987 11.6946 11.9747 11.7666 11.9267 11.8266C11.8787 11.8866 11.8133 11.9279 11.732 11.9492C11.8307 11.9666 11.9093 12.0106 11.968 12.0812C12.0253 12.1519 12.0547 12.2372 12.0547 12.3386C12.0547 12.4679 12.0027 12.5719 11.8987 12.6479C11.7947 12.7239 11.652 12.7626 11.4733 12.7626H10.7427V11.2266H11.4493ZM11.4307 11.8479C11.4973 11.8479 11.5507 11.8332 11.588 11.8026C11.6253 11.7719 11.644 11.7292 11.644 11.6746C11.644 11.6226 11.6253 11.5826 11.588 11.5546C11.5507 11.5266 11.4973 11.5119 11.4307 11.5119H11.0867V11.8479H11.4307ZM11.4307 12.4799C11.5133 12.4799 11.5787 12.4639 11.6267 12.4306C11.6733 12.3972 11.6973 12.3519 11.6973 12.2932C11.6973 12.2359 11.6733 12.1919 11.6267 12.1612C11.5787 12.1306 11.5133 12.1146 11.4307 12.1146H11.0867V12.4799H11.4307Z" fill="black"/><path d="M13.4335 12.7626L13.1908 12.3226H12.8335V12.7626H12.4895V11.2266H13.1562C13.3548 11.2266 13.5095 11.2732 13.6202 11.3666C13.7295 11.4599 13.7855 11.5906 13.7855 11.7599C13.7855 11.8772 13.7602 11.9786 13.7108 12.0626C13.6602 12.1466 13.5882 12.2119 13.4948 12.2559L13.8228 12.7626H13.4335ZM12.8335 12.0346H13.1562C13.2522 12.0346 13.3255 12.0119 13.3788 11.9666C13.4308 11.9212 13.4575 11.8559 13.4575 11.7706C13.4575 11.6866 13.4308 11.6239 13.3802 11.5812C13.3282 11.5386 13.2535 11.5172 13.1562 11.5172H12.8335V12.0346Z" fill="black"/><path d="M14.5693 11.2266H14.2253V12.7626H14.5693V11.2266Z" fill="black"/><path d="M16.7002 12.9491C16.6415 13.0011 16.5735 13.0411 16.4962 13.0717C16.4188 13.1024 16.3428 13.1171 16.2682 13.1171C16.1682 13.1171 16.0762 13.0877 15.9922 13.0304C15.9068 12.9731 15.8362 12.8917 15.7802 12.7891C15.6282 12.7877 15.4908 12.7504 15.3682 12.6797C15.2442 12.6091 15.1468 12.5131 15.0775 12.3931C15.0068 12.2731 14.9722 12.1397 14.9722 11.9917C14.9722 11.8437 15.0082 11.7104 15.0802 11.5904C15.1522 11.4704 15.2508 11.3757 15.3762 11.3077C15.5015 11.2397 15.6415 11.2051 15.7962 11.2051C15.9508 11.2051 16.0908 11.2397 16.2162 11.3077C16.3415 11.3757 16.4402 11.4704 16.5122 11.5904C16.5842 11.7104 16.6202 11.8437 16.6202 11.9917C16.6202 12.1624 16.5722 12.3144 16.4788 12.4477C16.3842 12.5811 16.2602 12.6771 16.1055 12.7357C16.1708 12.8064 16.2375 12.8424 16.3055 12.8424C16.3428 12.8424 16.3855 12.8317 16.4335 12.8104C16.4815 12.7891 16.5282 12.7597 16.5748 12.7224L16.7002 12.9491ZM15.3215 11.9917C15.3215 12.0811 15.3428 12.1624 15.3868 12.2384C15.4295 12.3144 15.4882 12.3731 15.5628 12.4171C15.6362 12.4611 15.7162 12.4824 15.8015 12.4824C15.8842 12.4824 15.9628 12.4611 16.0348 12.4171C16.1068 12.3731 16.1628 12.3144 16.2055 12.2397C16.2468 12.1651 16.2682 12.0824 16.2682 11.9917C16.2682 11.9024 16.2468 11.8211 16.2055 11.7477C16.1628 11.6744 16.1068 11.6157 16.0348 11.5731C15.9628 11.5304 15.8842 11.5091 15.8015 11.5091C15.7162 11.5091 15.6362 11.5304 15.5628 11.5731C15.4882 11.6157 15.4295 11.6744 15.3868 11.7477C15.3428 11.8211 15.3215 11.9024 15.3215 11.9917Z" fill="black"/><path d="M17.3508 12.1306C17.3508 12.2386 17.3815 12.3252 17.4455 12.3879C17.5082 12.4506 17.5908 12.4826 17.6948 12.4826C17.7962 12.4826 17.8775 12.4506 17.9388 12.3879C18.0002 12.3252 18.0308 12.2386 18.0308 12.1306V11.2266H18.3748V12.1306C18.3748 12.3332 18.3135 12.4932 18.1922 12.6119C18.0695 12.7306 17.9042 12.7892 17.6948 12.7892C17.5562 12.7892 17.4348 12.7626 17.3308 12.7092C17.2268 12.6559 17.1468 12.5799 17.0908 12.4799C17.0348 12.3799 17.0068 12.2639 17.0068 12.1306V11.2266H17.3508V12.1306Z" fill="black"/><path d="M18.8682 11.2265H20.0362V11.5172H19.2122V11.8452H19.9535V12.1358H19.2122V12.4745H20.0602V12.7625H18.8682V11.2265ZM19.5482 10.6665L19.8815 10.8025L19.5402 11.0772L19.2708 11.0505L19.5482 10.6665Z" fill="black"/><path d="M21.2229 11.2266H22.3909V11.5172H21.5669V11.8452H22.3082V12.1359H21.5669V12.4746H22.4149V12.7626H21.2229V11.2266Z" fill="black"/><path d="M22.8574 11.2266H23.1694L23.9214 12.2106V11.2266H24.2468V12.7626H23.9348L23.1854 11.7786V12.7626H22.8574V11.2266Z" fill="black"/><path d="M5.12012 14.2358H7.82545V15.1292H6.14545V15.8825H7.70545V16.7758H6.14545V18.0958H5.12012V14.2358Z" fill="black"/><path d="M10.5254 18.0958L10.0641 17.0625H9.50006V18.0958H8.47339V14.2358H10.1001C10.5681 14.2358 10.9307 14.3558 11.1894 14.5958C11.4467 14.8358 11.5761 15.1732 11.5761 15.6092C11.5761 15.8932 11.5254 16.1398 11.4254 16.3492C11.3254 16.5585 11.1801 16.7225 10.9881 16.8425L11.6894 18.0958H10.5254ZM9.50006 16.1692H10.1001C10.2561 16.1692 10.3774 16.1238 10.4654 16.0318C10.5534 15.9412 10.5974 15.8092 10.5974 15.6358C10.5974 15.4758 10.5534 15.3518 10.4654 15.2625C10.3774 15.1732 10.2561 15.1292 10.1001 15.1292H9.50006V16.1692Z" fill="black"/><path d="M14.6721 18.0958L14.4681 17.4892H13.0401L12.8294 18.0958H11.7734L13.2614 14.2358H14.3241L15.7694 18.0958H14.6721ZM13.3334 16.6425H14.1854L13.7654 15.3958L13.3334 16.6425Z" fill="black"/><path d="M16.1775 14.2358H17.0535L18.5482 16.3758V14.2358H19.4895V18.0958H18.6082L17.1202 15.9625V18.0958H16.1775V14.2358Z" fill="black"/><path d="M22.8495 15.6559C22.7375 15.4959 22.6068 15.3679 22.4575 15.2719C22.3068 15.1773 22.1601 15.1293 22.0161 15.1293C21.8601 15.1293 21.7175 15.1733 21.5868 15.2626C21.4575 15.3519 21.3548 15.4719 21.2815 15.6253C21.2068 15.7786 21.1695 15.9519 21.1695 16.1426C21.1695 16.3333 21.2068 16.5066 21.2815 16.6626C21.3548 16.8186 21.4575 16.9399 21.5868 17.0293C21.7175 17.1186 21.8601 17.1626 22.0161 17.1626C22.1521 17.1626 22.2948 17.1213 22.4455 17.0386C22.5948 16.9573 22.7295 16.8453 22.8495 16.7026L23.4441 17.4226C23.2521 17.6493 23.0228 17.8319 22.7575 17.9693C22.4908 18.1066 22.2255 18.1759 21.9615 18.1759C21.6135 18.1759 21.3001 18.0879 21.0201 17.9119C20.7401 17.7373 20.5201 17.4959 20.3601 17.1893C20.2001 16.8826 20.1201 16.5386 20.1201 16.1559C20.1201 15.7786 20.2015 15.4373 20.3628 15.1319C20.5255 14.8279 20.7495 14.5906 21.0375 14.4186C21.3255 14.2479 21.6481 14.1626 22.0041 14.1626C22.2681 14.1626 22.5295 14.2253 22.7895 14.3493C23.0495 14.4733 23.2681 14.6426 23.4441 14.8559L22.8495 15.6559Z" fill="black"/><path d="M23.9722 14.2358H26.8215V15.1292H24.9975V15.7158H26.6535V16.6092H24.9975V17.2025H26.8762V18.0958H23.9722V14.2358Z" fill="black"/><path d="M12.3174 20.1211H13.1494L13.408 19.3291L13.6667 20.1211H14.4987L13.8254 20.6104L14.0854 21.3998L13.408 20.9118L12.7334 21.3998L12.9921 20.6104L12.3174 20.1211Z" fill="black"/><path d="M14.8254 20.1211H15.6574L15.9161 19.3291L16.1761 20.1211H17.0081L16.3334 20.6104L16.5934 21.3998L15.9161 20.9118L15.2414 21.3998L15.5001 20.6104L14.8254 20.1211Z" fill="black"/><path d="M17.3347 20.1211H18.1667L18.424 19.3291L18.684 20.1211H19.516L18.8414 20.6104L19.1014 21.3998L18.424 20.9118L17.7507 21.3998L18.008 20.6104L17.3347 20.1211Z" fill="black"/></g><defs><clipPath id="clip0_283_39677"><rect width="32" height="32" rx="16" fill="white"/></clipPath></defs></svg>